<svg xmlns="http://www.w3.org/2000/svg" width="48" height="48" viewBox="0 0 48 48">
    <defs>
        <filter id="a" width="154.5%" height="340%" x="-27.3%" y="-120%" filterUnits="objectBoundingBox">
            <feGaussianBlur in="SourceGraphic" stdDeviation="2"/>
        </filter>
    </defs>
    <g fill="none" fill-rule="evenodd">
        <ellipse cx="24" cy="45.5" fill="#000" fill-opacity=".2" filter="url(#a)" rx="11" ry="2.5"/>
        <path fill="#333" d="M24 4C15.2 4 8 11.2 8 20c0 10.8 14 23 14.6 23.6.4.4.8.4 1.4.4.6 0 1-.2 1.4-.4C26 43 40 30.8 40 20c0-8.8-7.2-16-16-16z"/>
        <path fill="#00FFD0" d="M24 27c-3.85 0-7-3.15-7-7s3.15-7 7-7 7 3.15 7 7-3.15 7-7 7z"/>
    </g>
</svg>
