<svg xmlns="http://www.w3.org/2000/svg" viewBox="0 0 40 40">
  <defs/>
  <defs>
    <filter id="a" width="165.5%" height="388%" x="-32.7%" y="-144%" filterUnits="objectBoundingBox">
      <feGaussianBlur in="SourceGraphic" stdDeviation="2"/>
    </filter>
  </defs>
  <g fill="none" fill-rule="evenodd">
    <ellipse cx="20" cy="37.9166667" fill="#000" fill-opacity=".2" filter="url(#a)" rx="9.16666667" ry="2.08333333"/>
    <path fill="#333" d="M20.0000003 3.33333293c-7.33333336 0-13.33333336 6-13.33333336 13.33333337 0 9.0000001 11.66666676 19.1666666 12.16666676 19.6666666.3333332.3333335.6666666.3333335 1.1666666.3333335.5 0 .8333334-.1666667 1.1666666-.3333335.5-.5 12.1666668-10.6666665 12.1666668-19.6666666 0-7.33333337-6-13.33333337-13.3333334-13.33333337z"/>
    <path fill="#00FFD0" d="M20.0000003 22.4999997c-3.2083333 0-5.8333333-2.625-5.8333333-5.8333334 0-3.2083333 2.625-5.8333333 5.8333333-5.8333333 3.2083334 0 5.8333334 2.625 5.8333334 5.8333333 0 3.2083334-2.625 5.8333334-5.8333334 5.8333334z"/>
  </g>
</svg>
