<svg width="44" height="22" viewBox="0 0 44 22" fill="none" xmlns="http://www.w3.org/2000/svg">
  <path fill-rule="evenodd" clip-rule="evenodd" d="M28 0H0V22H28L44 11L28 0Z" fill="#E0F056"/>
  <path d="M9.83048 16.21C12.0845 16.21 13.4565 15.104 14.0025 14.124L12.5325 13.228C12.0145 14.222 11.0345 14.754 9.84448 14.754C8.01048 14.754 6.61048 13.158 6.61048 11.016C6.61048 8.888 8.01048 7.278 9.87248 7.278C11.1885 7.278 12.0145 7.908 12.4625 8.93L13.9885 8.286C13.5545 6.886 12.0425 5.822 9.80248 5.822C6.91848 5.822 4.86048 8.006 4.86048 11.072C4.86048 14.082 6.93248 16.21 9.83048 16.21Z" fill="#333333"/>
</svg>
