<svg width="56" height="56" viewBox="0 0 56 56" fill="none" xmlns="http://www.w3.org/2000/svg">
<g clip-path="url(#clip0_1343_33667)">
<path fill-rule="evenodd" clip-rule="evenodd" d="M40.3134 25.7242H52.5V37.3417H40.3134V25.7242ZM32.5627 44.3668C32.5627 48.0477 33.1314 50.4424 34.2591 51.5444C35.2177 52.4845 36.8459 53.0562 39.1337 53.2817C39.8162 53.3293 40.9763 53.3579 42.611 53.3579V56.5846H13.2753V53.3579C15.6249 53.3579 17.3668 53.2531 18.4847 53.0403C20.7628 52.5734 22.1992 51.3158 22.7874 49.2387C23.0928 48.1653 23.2456 46.5487 23.2456 44.3668V2.1588C18.2734 2.29536 14.3737 3.86427 11.5659 6.87822C8.89136 9.76831 7.26323 14.1733 6.67177 20.1218L3.5 19.601L4.08496 -0.582031H51.8013L52.3895 19.601L49.2145 20.125C48.6263 14.1733 46.9786 9.76514 44.3008 6.8814C41.4735 3.86427 37.5576 2.29536 32.5627 2.1588V44.3668ZM3.55525 25.7242H15.7354V37.3417H3.55525V25.7242Z" fill="#E00A79"/>
</g>
<defs>
<clipPath id="clip0_1343_33667">
<rect width="56" height="56" fill="white"/>
</clipPath>
</defs>
</svg>
